/* XPM */
static char *result[] = {
/* columns rows colors chars-per-pixel */
"40 40 14 1 ",
"  c black",
". c gray8",
"X c #181818",
"o c gray28",
"O c #797979",
"+ c gray50",
"@ c gray52",
"# c #888888",
"$ c #989898",
"% c #A7A7A7",
"& c #D5D5D5",
"* c gray88",
"= c #E4E4E4",
"- c white",
/* pixels */
"----------------------------------------",
"----------------------------------------",
"----------------------------------------",
"----------------------------------------",
"----------------------------------------",
"------------------------ ---------------",
"-------------*   ------    -------------",
"-----------   --  ----  --   -----------",
"---------   ----- ---  -----   ---------",
"-------   -------- -= --------   +------",
"-----   ----------   ------------   ----",
"---   ------------   --------------  ---",
"---- -----------   -   ------------  ---",
"----O --------   -----   @--------  ----",
"-----  -----   ----------   ------ -----",
"------ ---   --------------   --- ------",
"-------    ------------------     ------",
"-------   --------------------   -------",
"------ --   ----------------   -  ------",
"-----  ----   X-----------   ----  -----",
"----  --------   -------   ------- -----",
"---- -----------   ---   ---------  ----",
"--- --------------    $------------  ---",
"---   %------------  o-----------   ----",
"------   ---------    ---------   ------",
"-------    ------  -   ------    -------",
"------- --   ---- -- -  --#  .-- -------",
"------- ----   -  -- --    ----- -------",
"-------  -----   --- --  ------  -------",
"--------   --------- --------   --------",
"-----------   ------ ------   ----------",
"-------------   ---- ----   ------------",
"---------------   -- -   &--------------",
"-----------------      -----------------",
"-------------------  -------------------",
"----------------------------------------",
"----------------------------------------",
"----------------------------------------",
"----------------------------------------",
"----------------------------------------"
};
