/* XPM */
static char *_dd55e9c421c4fb2c3ef5f07c67e00181J2wSUnrYaVNwUOP[] = {
/* columns rows colors chars-per-pixel */
"40 40 23 1 ",
"  c #070707",
". c #090909",
"X c gray5",
"o c #131313",
"O c gray9",
"+ c #181818",
"@ c gray19",
"# c #777777",
"$ c #7E7E7E",
"% c #808080",
"& c #8B8B8B",
"* c gray56",
"= c #B6B6B6",
"- c #C1C1C1",
"; c #C6C6C6",
": c #CBCBCB",
"> c #D0D0D0",
", c #D5D6D6",
"< c #E6E6E6",
"1 c #EFEFEF",
"2 c gray98",
"3 c #FAFDFD",
"4 c white",
/* pixels */
"4444444444444444444444444444444444444444",
"4444444444444444444444444444444444444444",
"4444444444444444444444444444444444444444",
"4444444444444444444444444444444444444444",
"4444444444444X444444444X4444444444444444",
"444444444444%  :444444@ .444444444444444",
"444444444444o   O4444O   O44444444444444",
"444444444444              44444444444444",
"44444444444               o4444444444444",
"44444444444               o4444444444444",
"4444444444.                2444444444444",
"4444444444                 2444444444444",
"4444444444   3  3.  ,3.+3  2444444444444",
"4444444444   3  3.  23 +3  2444444444444",
"4444444444  .+33o.  .333.  2444444444444",
"4444444444      .          2444444444444",
"44444444444               o4444444444444",
"44444444444*              =4444444444444",
"444444444444$            444444444444444",
"4444444444444X          O444444444444444",
"444444444444$            444444444444444",
"444444444444              44444444444444",
"44444444444*              =444444;&&4444",
"44444444444               o44444X.  o444",
"44444444444.              o4444     o444",
"4444444444.                244.    44444",
"4444444444                 24-.  +444444",
"444444444O                 .4#  .4444444",
"444444444O                  4#  44444444",
"444444444O                  4O  44444444",
"444444444O                  4   44444444",
"444444444O                     444444444",
"4444444444                     444444444",
"4444444444O.                 .<444444444",
"44444444444>                >14444444444",
"4444444444444X            o4444444444444",
"4444444444444444444444444444444444444444",
"4444444444444444444444444444444444444444",
"4444444444444444444444444444444444444444",
"4444444444444444444444444444444444444444"
};
