/* XPM */
static char *_03584c4ccb54fe7d2bcd033e89318a52MlMKVVxC340aXi7[] = {
/* columns rows colors chars-per-pixel */
"40 40 13 1 ",
"  c black",
". c #202020",
"X c #282828",
"o c #313131",
"O c #585858",
"+ c #7E7E7E",
"@ c #808080",
"# c gray63",
"$ c gray78",
"% c gray79",
"& c #CECECE",
"* c #F8F8F8",
"= c white",
/* pixels */
"========================================",
"========================================",
"==+                               ======",
"== ============================== ======",
"== ============================== ======",
"== ============================== ======",
"== ============================== ======",
"== ===                        === ======",
"== === ======================= == ======",
"== === ======================= == ======",
"== === ======================= == ======",
"== === =======================* = ======",
"== ===  ======================= = ======",
"== ===  ======================= = ======",
"== === = =======================  ======",
"== === = =======================  ======",
"== === = =======================# ======",
"== === == ======================= ======",
"== === == ======================= ======",
"== === == ======================= ======",
"== === === ======================= =====",
"== === === ======================= =====",
"== === === ======================= =====",
"== === ===% ======================& ====",
"== === ==== ======================= ====",
"== === ==== ======================= ====",
"== === ====Oo======================@X===",
"== === ===== ======================= ===",
"== === ===== ======================= ===",
"== === ===== %====================== ===",
"== === ====== ====================== ===",
"== === ====== ====================== ===",
"== ===         ====================  ===",
"== ===========$                     ====",
"== ============================== ======",
"== ============================== ======",
"== ============================== ======",
"==.                               ======",
"========================================",
"========================================"
};
