/* XPM */
static char *ebbf08d7afda40d98763ce4ca23a91a7jXgYsBLzuxuxZjVP[] = {
/* columns rows colors chars-per-pixel */
"40 40 62 1 ",
"  c gray1",
". c gray2",
"X c #090909",
"o c gray6",
"O c #101010",
"+ c gray9",
"@ c #181818",
"# c gray12",
"$ c gray13",
"% c #252525",
"& c gray17",
"* c #2D2D2D",
"= c gray19",
"- c #343434",
"; c gray22",
": c #3C3C3C",
"> c #414141",
", c #444444",
"< c #4B4B4B",
"1 c gray30",
"2 c #505050",
"3 c #565756",
"4 c gray35",
"5 c #5F5F5F",
"6 c gray38",
"7 c #646363",
"8 c gray40",
"9 c #6A6A6A",
"0 c #6D6D6D",
"q c gray45",
"w c #767676",
"e c gray47",
"r c #7C7C7C",
"t c gray51",
"y c #858483",
"u c gray52",
"i c #888888",
"p c gray56",
"a c #929292",
"s c gray58",
"d c #9B9B9B",
"f c #9D9D9D",
"g c #A0A0A0",
"h c gray65",
"j c gray66",
"k c #AEAEAE",
"l c #B2B2B2",
"z c gray71",
"x c #BBBBBB",
"c c gray74",
"v c #C0C0C0",
"b c #C5C5C5",
"n c #C8C8C8",
"m c gray81",
"M c gray82",
"N c #D5D5D5",
"B c gray86",
"V c gray87",
"C c gray89",
"Z c #E4E4E4",
"A c gray91",
"S c white",
/* pixels */
"SSSSSSSSSSSSSSSSSSSSSSSSSSSSSSSSSSSSSSSS",
"SSSSSSSSSSSSSSSSSSSSSSSSSSSSSSSSSSSSSSSS",
"SSSSSSSSSSSSSSSSSSSSSSSSSSSSSSSSSSSSSSSS",
"SSSSSSSSSSSSSSSSSSSSSSSSSSSSSSSSSSSSSSSS",
"SSSSSSSSSSSSSSSSSSSSSSSSSSSSSSSSSSSSSSSS",
"SSSSSSSSSSSSSSSSSSSSSSSSSSSSSSSSSSSSSSSS",
"SSSSSSSSSSSSSSSSSSSSCSSSSSSSSSSSSSSSSSSS",
"SSSSSSSSSSSSSS-+#@=&>-$SSSSSSSSSSSSSSSSS",
"SSSSSSSSSSSS$;%%*=;1&&&@-SSSSSSSSSSSSSSS",
"SSSSSSSSSSS%%%@<e,<1u5t:;#SSSSSSSSSSSSSS",
"SSSSSSSSSS**=+$=*w<5%,$#>u7SSSSSSSSSSSSS",
"SSSSSSSSSS9%$&30dgkvcbnz&@;zSSSSSSSSSSSS",
"SSSSSSSSSS&$$tshxvmvmmmMb#21SSSSSSSSSSSS",
"SSSSSSSSSS=%1sgfvbvmNAANmcf2ySSSSSSSSSSS",
"SSSSSSSSSS3=iedljvbnMCAANv%$SSSSSSSSSSSS",
"SSSSSSSSSSS:u8qplxnvBZCCNbd&SSSSSSSSSSSS",
"SSSSSSSSSSS;58utlbbmVZZZNx2=SSSSSSSSSSSS",
"SSSSSSSSSSS&q98akvmbNZZCmM6#SSSSSSSSSSSS",
"SSSSSSSSSSS$0rtdlxlczicNmn,*SSSSSSSSSSSS",
"SSSSSSSSSSS%e-3;>=zv5@%mnm;4SSSSSSSSSSSS",
"SSSSSSSSSSS&=%%-O XOvxbM9VpNZSSSSSSSSSSS",
"SSSSSSSSSSS*i#13$.jBbezlBVbtSSSSSSSSSSSS",
"SSSSSSSSSSS:r9B>8%dNbVtBVVNZSSSSSSSSSSSS",
"SSSSSSSSSSSS3<2,=2aVBBCCBBBCSSSSSSSSSSSS",
"SSSSSSSSSSSS<<41@,dBBNnmNmSSSSSSSSSSSSSS",
"SSSSSSSSSSSSS1:*--%9NCCNvnSSSSSSSSSSSSSS",
"SSSSSSSSSSSSSS%6%:xivnnVmnSSSSSSSSSSSSSS",
"SSSSSSSSSSSSSS>2o*8lNqcBmSSSSSSSSSSSSSSS",
"SSSSSSSSSSSSSS:<3,,dcMNbvSSSSSSSSSSSSSSS",
"SSSSSSSSSSSSSSS-2wtcNBMvSSSSSSSSSSSSSSSS",
"SSSSSSSSSSSSSSSS$;3xcbkSSSSSSSSSSSSSSSSS",
"SSSSSSSSSSSSSSSSSC%=>rSSSSSSSSSSSSSSSSSS",
"SSSSSSSSSSSSSSSSSSSSSSSSSSSSSSSSSSSSSSSS",
"SSSSSSSSSSSSSSSSSSSSSSSSSSSSSSSSSSSSSSSS",
"SSSSSSSSSSSSSSSSSSSSSSSSSSSSSSSSSSSSSSSS",
"SSSSSSSSSSSSSSSSSSSSSSSSSSSSSSSSSSSSSSSS",
"SSSSSSSSSSSSSSSSSSSSSSSSSSSSSSSSSSSSSSSS",
"SSSSSSSSSSSSSSSSSSSSSSSSSSSSSSSSSSSSSSSS",
"SSSSSSSSSSSSSSSSSSSSSSSSSSSSSSSSSSSSSSSS",
"SSSSSSSSSSSSSSSSSSSSSSSSSSSSSSSSSSSSSSSS"
};
