/* XPM */
static char *c4b78afb173e43ac9f7158d47ec8c824So2MQLosyRIEzTgD[] = {
/* columns rows colors chars-per-pixel */
"40 40 29 1 ",
"  c black",
". c gray6",
"X c #101010",
"o c gray12",
"O c #202020",
"+ c #2F2F2F",
"@ c gray19",
"# c #3F3F3F",
"$ c gray25",
"% c gray31",
"& c #505050",
"* c #5F5F5F",
"= c #606060",
"- c #6F6F6F",
"; c gray44",
": c gray50",
"> c #808080",
", c gray56",
"< c gray60",
"1 c #9F9F9F",
"2 c #A7A7A7",
"3 c #AFAFAF",
"4 c gray69",
"5 c gray75",
"6 c #C0C0C0",
"7 c gray81",
"8 c #DFDFDF",
"9 c #EFEFEF",
"0 c white",
/* pixels */
"00   00 900:  @                        .",
"0000 00000000  00 0XoX0000   00000000000",
"0000 000000000000 0800000000 00000000000",
"0008 000000000  0 0000000000 000000000 0",
" 7900007800 0 0 00O00  500000000  000:$0",
"00000000000 0000000000 000000000 0000000",
"000 0000000 00000000000000000500 0000000",
"00000000000 0000000000X000000091 7000000",
"0007+000000000 0000000000 0000000000 000",
"0009000000000000000000000 0000000000 000",
"00060000000000*0000000000 000000000# 000",
"         $         .     %        0  000",
"000000000000000000080000000000 000000000",
"000000000000000000080000000000 000000000",
"0000000000000000000 0000000000 000000000",
"                      ,   XX+           ",
"00000000000000 0000000000 0000000000 000",
"000-0000000000 0000000000 0000000000 000",
"000 0000000000 0 0 o00005 0000000000 000",
"         o800000 0 00109                ",
"0000000 0000000000 0000000000 0000000000",
"0000000 0000000000 0000000000 0000000000",
"000 0 7  00000000# 0000000000 0000000000",
"    0000000000 0000 00029 O0080000   000",
"000 0000000000 0500000000 00000000000000",
"000%0000000000 0000000000 00000000000000",
"000 5$8$$5000>   00  0000X008070000 0000",
"0000000080000000000  0:0007000   0000000",
"0000 00000000000000 0000000000 000000000",
"00000000 0000000000 0000000000 000000000",
"  7   ;     00:00    00 06;00  0-0000000",
"800 00000000    00000000 5000040000 0000",
"000 000000000  0000700000 00000000030000",
"000 0000000000 0000000000 000000000O0009",
"      =o 9:0o8 0#5*00000  0 0+0000  >000",
"00000X 080000000X  000000000   0 00500 0",
"001000 0<00#00000 0000000000000000000000",
"$0,000 00&0000000 X000000000 00000000000",
"    $+    *       53 500.0,   :0  70.1 0",
"000 00000000080000000000  $@0 .0080 0000"
};
